<svg width="60" height="16" viewBox="0 0 60 16" fill="none" xmlns="http://www.w3.org/2000/svg">
<path d="M2.5525 3.94544V3.3386H0.850834L2.41637 1.51807C2.48443 1.41693 2.5525 1.28207 2.5525 1.18093C2.5525 0.978649 2.38233 0.776367 2.11007 0.776367H0.0680667V1.3495H1.70167L0.2042 3.10261C0.136133 3.17003 0 3.3386 0 3.54088C0 3.64202 0.0340334 3.97916 0.544534 3.97916H2.5525V3.94544Z" fill="#424555"/>
<path d="M4.39273 1.95639C4.39273 1.72039 4.42676 1.58554 4.49483 1.4844C4.59693 1.38326 4.76709 1.34954 4.90323 1.34954H5.27759V0.708984H4.90323C4.52886 0.708984 4.25659 0.810125 4.05239 0.978693C3.78013 1.28212 3.74609 1.58554 3.74609 1.88896V3.94549H4.42676V1.95639H4.39273Z" fill="#424555"/>
<path d="M7.62301 3.97874C7.96334 3.97874 8.47384 3.94502 8.81417 3.60789C9.01837 3.40561 9.22257 3.03476 9.22257 2.32677C9.22257 1.75364 9.08644 1.31536 8.81417 1.04565C8.47384 0.708518 7.99737 0.674805 7.62301 0.674805C7.24864 0.674805 6.77217 0.708518 6.43184 1.04565C6.15957 1.31536 6.02344 1.75364 6.02344 2.32677C6.02344 3.03476 6.26167 3.43932 6.43184 3.60789C6.77217 3.94502 7.28267 3.97874 7.62301 3.97874ZM6.7041 2.36048C6.7041 2.12449 6.7041 1.71993 6.87427 1.51764C7.04444 1.34908 7.35074 1.31536 7.62301 1.31536C7.89527 1.31536 8.20157 1.34908 8.37174 1.51764C8.54191 1.71993 8.54191 2.12449 8.54191 2.36048C8.54191 2.56277 8.54191 2.93362 8.37174 3.1359C8.20157 3.33818 7.89527 3.33818 7.62301 3.33818C7.35074 3.33818 7.04444 3.30447 6.87427 3.1359C6.7041 2.93362 6.7041 2.59648 6.7041 2.36048Z" fill="#424555"/>
<path d="M1.53013 6.71007H0.815433V5.7998H0.134766V9.30602C0.134766 9.40716 0.134766 9.64315 0.338966 9.81172C0.475099 9.91286 0.679299 9.94658 0.917533 9.94658H1.53013C1.87047 9.94658 2.38097 9.87915 2.68727 9.37345C2.89147 9.07002 2.89147 8.69917 2.89147 8.36204C2.89147 8.09233 2.89147 7.62034 2.65323 7.2832C2.34693 6.71007 1.73433 6.71007 1.53013 6.71007ZM0.815433 9.30602V7.35063H1.4961C1.73433 7.35063 2.0066 7.38434 2.1087 7.65405C2.17677 7.82262 2.2108 8.15976 2.2108 8.46318C2.2108 8.66546 2.2108 8.90146 2.1087 9.03631C1.97257 9.27231 1.73433 9.30602 1.46207 9.30602H0.815433C0.815433 9.30602 0.849466 9.30602 0.815433 9.30602Z" fill="#424555"/>
<path d="M5.00015 5.7998H4.35352V9.94658H5.00015V5.7998Z" fill="#424555"/>
<path d="M8.54195 6.91224C8.26969 6.74367 7.92935 6.70996 7.72515 6.70996C7.45289 6.70996 7.01045 6.74367 6.70415 7.01338C6.29575 7.35052 6.26172 7.88994 6.26172 8.32821C6.26172 8.8002 6.29575 9.17105 6.53399 9.50819C6.73819 9.7779 7.04449 9.94647 7.45289 9.94647H9.05245V9.30591H7.45289C7.14659 9.30591 7.01045 9.06991 7.01045 8.93506C6.97642 8.86763 6.97642 8.73278 6.97642 8.59792H8.50792C8.67809 8.59792 8.84825 8.56421 8.95035 8.46307C9.08649 8.36193 9.12052 8.19336 9.12052 7.95736C9.12052 7.51909 8.91632 7.11452 8.54195 6.91224ZM7.04449 7.58651C7.18062 7.35052 7.38482 7.31681 7.69112 7.31681C7.96339 7.31681 8.13355 7.31681 8.30372 7.48537C8.37179 7.5528 8.43985 7.72137 8.43985 7.95736H6.94239C6.94239 7.82251 6.97642 7.68766 7.04449 7.58651Z" fill="#424555"/>
<path d="M1.73546 12.7112H0.714455C0.646389 12.7112 0.408155 12.7112 0.272022 12.8797C0.169922 13.0146 0.169922 13.1495 0.169922 13.2506V15.914H0.850589V13.318H1.76949C1.93966 13.318 2.04176 13.3517 2.07579 13.4192C2.14386 13.4866 2.14386 13.5877 2.14386 13.8237V15.914H2.82452V13.7563C2.82452 13.4192 2.72242 13.1495 2.55226 12.9472C2.31402 12.7449 2.00772 12.7112 1.73546 12.7112Z" fill="#424555"/>
<path d="M5.58004 12.677C5.20567 12.677 4.7292 12.7107 4.38887 13.0479C4.1166 13.3176 3.98047 13.7558 3.98047 14.329C3.98047 15.037 4.2187 15.4415 4.38887 15.6101C4.7292 15.9472 5.2397 15.9809 5.58004 15.9809C5.92037 15.9809 6.43087 15.9472 6.7712 15.6101C6.9754 15.4078 7.1796 15.037 7.1796 14.329C7.1796 13.7558 7.04347 13.3176 6.7712 13.0479C6.43087 12.7107 5.9544 12.677 5.58004 12.677ZM4.8313 13.5198C5.00147 13.3513 5.30777 13.3176 5.58004 13.3176C5.8523 13.3176 6.1586 13.3513 6.32877 13.5198C6.49894 13.7221 6.49894 14.1267 6.49894 14.3627C6.49894 14.565 6.49894 14.9358 6.32877 15.1381C6.1586 15.3404 5.8523 15.3404 5.58004 15.3404C5.30777 15.3404 5.00147 15.3067 4.8313 15.1381C4.66114 14.9358 4.66114 14.565 4.66114 14.329C4.66114 14.1267 4.66114 13.7221 4.8313 13.5198Z" fill="#424555"/>
<path d="M9.1229 12.7112H8.4082V13.5203H9.1229V12.7112Z" fill="#424555"/>
<path d="M9.1229 15.1379H8.4082V15.9471H9.1229V15.1379Z" fill="#424555"/>
<path d="M12.0469 0V15.9802H59.9999V0H12.0469ZM58.5364 14.5643H13.4763V1.41597H58.5364V14.5643Z" fill="#424555"/>
<path d="M17.3236 10.5519H21.6799C22.3265 10.5519 22.3606 10.0125 22.3606 9.74281C22.3606 9.43939 22.2925 9.10225 21.6459 8.93368L18.4467 8.02341C18.3446 7.9897 17.8682 7.82113 17.5619 7.484C17.2215 7.07943 17.1875 6.5063 17.1875 6.10174C17.1875 5.66346 17.2556 5.12405 17.664 4.7532C18.0383 4.38235 18.5148 4.34863 18.8892 4.34863H23.4156V5.42747H19.3656C19.1614 5.42747 18.9572 5.42747 18.7871 5.59604C18.6169 5.7646 18.5829 6.03431 18.5829 6.16917C18.5829 6.5063 18.685 6.80973 19.2635 6.97829L22.2244 7.82113C22.7349 7.9897 23.0412 8.12456 23.2795 8.32684C23.7219 8.7314 23.7559 9.40567 23.7559 9.74281C23.7559 10.2148 23.6879 10.7205 23.3816 11.0914C23.0072 11.5633 22.5648 11.5971 22.0543 11.5971H17.3236V10.5519Z" fill="#424555"/>
<path d="M34.4397 11.6308H33.0444V8.42798H29.1986V11.6308H27.8032V4.34863H29.1986V7.34914H33.0444V4.34863H34.4397V11.6308Z" fill="#424555"/>
<path d="M45.0254 5.02346C45.8081 5.76516 45.8762 7.01256 45.8762 7.99026C45.8762 8.93424 45.8081 10.2154 45.0254 10.9571C44.2086 11.7325 42.9493 11.7325 42.0985 11.7325C41.2136 11.7325 39.9884 11.7325 39.1716 10.9571C38.3208 10.1479 38.3208 8.8331 38.3208 7.99026C38.3208 7.01256 38.3889 5.76516 39.1716 5.02346C39.9884 4.24805 41.2136 4.24805 42.0985 4.24805C42.9834 4.24805 44.2426 4.24805 45.0254 5.02346ZM40.1926 10.0131C40.6351 10.5525 41.3157 10.6199 42.0985 10.6199C42.8472 10.6199 43.5619 10.5525 44.0044 10.0131C44.2426 9.70965 44.4468 9.17023 44.4468 7.99026C44.4468 6.74285 44.2086 6.23715 44.0044 5.93373C43.5619 5.39431 42.8472 5.32688 42.0985 5.32688C41.3157 5.32688 40.6351 5.39431 40.1926 5.93373C39.9204 6.30458 39.7502 6.87771 39.7502 7.99026C39.7502 9.17023 39.9544 9.70965 40.1926 10.0131Z" fill="#424555"/>
<path d="M51.188 11.5957H52.5834V10.1797H51.188V11.5957Z" fill="#424555"/>
<path d="M55.3059 6.00018C55.3059 5.66304 55.2719 5.25848 55.0336 4.88763C54.9656 4.78649 54.9315 4.71906 54.8635 4.65163C54.6593 4.44935 54.421 4.3145 54.0807 4.28078C53.9786 4.28078 53.7404 4.24707 53.5021 4.24707H49.1118V5.32591H53.1618C53.366 5.32591 53.5702 5.32591 53.7404 5.49447C53.9105 5.66304 53.9446 5.93275 53.9446 6.0676C53.9446 6.40474 53.8084 6.67445 53.2639 6.87673C52.9576 7.01159 52.1068 7.31501 51.9366 7.44986C51.6984 7.61843 51.4942 7.82071 51.3921 8.12413C51.29 8.39384 51.2219 8.62984 51.2219 9.10183H52.5832C52.5832 9.10183 52.5832 9.00069 52.5832 8.93326C52.5832 8.86583 52.5832 8.79841 52.6173 8.73098C52.6173 8.66355 52.6513 8.62984 52.6853 8.59612C52.7194 8.56241 52.7534 8.5287 52.8215 8.49498C52.8895 8.46127 52.9916 8.42756 53.0937 8.39384C53.0937 8.39384 54.3189 7.92185 54.5572 7.787C54.6933 7.68586 54.8294 7.551 54.9315 7.44986C55.2719 7.01159 55.3059 6.43845 55.3059 6.00018Z" fill="#424555"/>
</svg>
