<svg width="88" height="22" viewBox="0 0 88 22" fill="none" xmlns="http://www.w3.org/2000/svg">
<path d="M17.4476 9.70186C17.4476 13.4351 17.4367 17.1789 17.4585 20.9121C17.4585 21.2496 17.3604 21.3129 17.0335 21.3129C11.4762 21.3023 5.90804 21.3023 0.339844 21.3023C0.339844 17.6007 0.339844 13.8886 0.339844 10.187C0.339844 9.86005 0.372534 9.68077 0.797504 9.69131C6.34391 9.70186 11.9012 9.70186 17.4476 9.70186ZM7.82586 18.2229C8.022 18.1807 8.10917 18.0331 8.21814 17.9276C9.47125 16.7149 10.7244 15.5021 11.9775 14.2788C12.7947 13.4773 12.7947 13.4878 11.9557 12.6969C11.716 12.4754 11.5961 12.4543 11.3564 12.6969C10.452 13.6038 9.51484 14.4897 8.59952 15.3861C7.84765 16.1137 7.84765 16.1137 7.08488 15.3755C6.25674 14.574 6.26763 14.5846 5.45038 15.4072C5.24335 15.6075 5.19976 15.7341 5.42859 15.9556C6.15867 16.641 6.86695 17.3371 7.58613 18.0331C7.6733 18.0964 7.74958 18.1596 7.82586 18.2229Z" fill="#9AC34F"/>
<path d="M10.0389 0C10.0716 0.073821 10.137 0.0949128 10.2024 0.105459C12.7195 0.548385 14.0925 2.10917 14.6918 4.41872C14.986 5.58931 14.8552 6.79154 14.877 7.98322C14.877 8.20468 14.779 8.29959 14.5501 8.29959C13.9181 8.29959 13.2752 8.28905 12.6432 8.29959C12.3163 8.31014 12.3272 8.10977 12.3163 7.88831C12.2836 6.90754 12.4035 5.91623 12.24 4.94601C11.9894 3.50123 11.0305 2.64701 9.51588 2.53101C9.40691 2.52046 9.29795 2.50992 9.18898 2.50992C6.68275 2.40446 5.47322 3.52232 5.46232 5.94787C5.46232 6.60171 5.45142 7.24501 5.46232 7.89885C5.46232 8.17304 5.40784 8.32069 5.08094 8.31014C4.48162 8.28905 3.8823 8.29959 3.28298 8.31014C3.08684 8.31014 2.9016 8.28905 2.9016 8.04649C2.9016 6.47516 2.77084 4.88273 3.42464 3.37468C4.16562 1.69788 5.37515 0.601114 7.21668 0.17928C7.35834 0.147642 7.55448 0.17928 7.64165 0C8.44801 0 9.24346 0 10.0389 0Z" fill="#9AC34F"/>
<path d="M30.1345 12.2416L29.9893 13.0609C29.9744 13.1199 29.9483 13.1679 29.9111 13.2048C29.8738 13.2417 29.8254 13.2601 29.7658 13.2601H29.7434C29.3784 13.2232 29.0246 13.1974 28.6819 13.1826C28.3467 13.1605 27.9705 13.1494 27.5533 13.1494C27.3968 13.1494 27.2404 13.1642 27.084 13.1937C26.9275 13.2159 26.786 13.2638 26.6593 13.3376C26.5327 13.4041 26.4284 13.5 26.3465 13.6255C26.272 13.7436 26.2347 13.8949 26.2347 14.0794C26.2347 14.2271 26.2869 14.3636 26.3912 14.4891C26.5029 14.6072 26.7003 14.7511 26.9834 14.9209L28.1902 15.6627C28.6446 15.9432 28.9538 16.2495 29.1177 16.5816C29.289 16.9138 29.3747 17.2385 29.3747 17.5559C29.3747 18.0431 29.2853 18.4564 29.1065 18.796C28.9277 19.1355 28.6819 19.4123 28.369 19.6263C28.0636 19.8404 27.706 19.9954 27.2963 20.0913C26.894 20.1873 26.4619 20.2353 26.0001 20.2353C25.5754 20.2353 25.2104 20.2168 24.905 20.1799C24.5996 20.143 24.3165 20.095 24.0557 20.036C24.011 20.0212 23.9701 19.9991 23.9328 19.9695C23.8956 19.94 23.877 19.8994 23.877 19.8478V19.8145L24.0222 19.0174C24.0371 18.9583 24.0669 18.9104 24.1116 18.8735C24.1563 18.8292 24.2085 18.807 24.2681 18.807H24.2904C24.4021 18.8218 24.5474 18.8365 24.7262 18.8513C24.905 18.8587 25.0912 18.8698 25.2849 18.8845C25.4786 18.8919 25.6611 18.8993 25.8324 18.9067C26.0112 18.9141 26.1528 18.9177 26.2571 18.9177C26.4508 18.9177 26.637 18.8993 26.8158 18.8624C26.9946 18.8255 27.151 18.7627 27.2851 18.6742C27.4192 18.5856 27.5272 18.4675 27.6092 18.3199C27.6911 18.1723 27.7321 17.9877 27.7321 17.7663C27.7321 17.6187 27.6762 17.4747 27.5645 17.3345C27.4602 17.1943 27.2628 17.0282 26.9722 16.8363L25.6537 15.9616C25.4674 15.8361 25.311 15.6996 25.1843 15.552C25.0577 15.397 24.9534 15.242 24.8715 15.087C24.797 14.9246 24.7448 14.7659 24.715 14.6109C24.6852 14.4485 24.6703 14.3009 24.6703 14.168C24.6703 13.703 24.7597 13.3192 24.9385 13.0166C25.1247 12.7139 25.3669 12.4778 25.6648 12.308C25.9628 12.1308 26.3018 12.0091 26.6817 11.9426C27.0691 11.8688 27.4602 11.8319 27.855 11.8319C28.0412 11.8319 28.2386 11.8393 28.4472 11.8541C28.6558 11.8614 28.857 11.8762 29.0506 11.8983C29.2443 11.9205 29.4231 11.9426 29.587 11.9648C29.7509 11.9869 29.8775 12.0091 29.9669 12.0312C30.0116 12.046 30.0489 12.0681 30.0787 12.0976C30.1159 12.1272 30.1345 12.1641 30.1345 12.2083V12.2416Z" fill="white"/>
<path d="M36.5074 12.2416L36.3621 13.0609C36.3472 13.1199 36.3211 13.1679 36.2839 13.2048C36.2466 13.2417 36.1982 13.2601 36.1386 13.2601H36.1163C35.7512 13.2232 35.3974 13.1974 35.0547 13.1826C34.7195 13.1605 34.3433 13.1494 33.9261 13.1494C33.7697 13.1494 33.6132 13.1642 33.4568 13.1937C33.3004 13.2159 33.1588 13.2638 33.0322 13.3376C32.9055 13.4041 32.8012 13.5 32.7193 13.6255C32.6448 13.7436 32.6075 13.8949 32.6075 14.0794C32.6075 14.2271 32.6597 14.3636 32.764 14.4891C32.8757 14.6072 33.0731 14.7511 33.3562 14.9209L34.563 15.6627C35.0175 15.9432 35.3266 16.2495 35.4905 16.5816C35.6618 16.9138 35.7475 17.2385 35.7475 17.5559C35.7475 18.0431 35.6581 18.4564 35.4793 18.796C35.3005 19.1355 35.0547 19.4123 34.7418 19.6263C34.4364 19.8404 34.0788 19.9954 33.6691 20.0913C33.2668 20.1873 32.8348 20.2353 32.3729 20.2353C31.9483 20.2353 31.5832 20.2168 31.2778 20.1799C30.9724 20.143 30.6893 20.095 30.4286 20.036C30.3839 20.0212 30.3429 19.9991 30.3056 19.9695C30.2684 19.94 30.2498 19.8994 30.2498 19.8478V19.8145L30.395 19.0174C30.4099 18.9583 30.4397 18.9104 30.4844 18.8735C30.5291 18.8292 30.5813 18.807 30.6409 18.807H30.6632C30.775 18.8218 30.9202 18.8365 31.099 18.8513C31.2778 18.8587 31.464 18.8698 31.6577 18.8845C31.8514 18.8919 32.0339 18.8993 32.2053 18.9067C32.3841 18.9141 32.5256 18.9177 32.6299 18.9177C32.8236 18.9177 33.0098 18.8993 33.1886 18.8624C33.3674 18.8255 33.5238 18.7627 33.6579 18.6742C33.792 18.5856 33.9 18.4675 33.982 18.3199C34.0639 18.1723 34.1049 17.9877 34.1049 17.7663C34.1049 17.6187 34.049 17.4747 33.9373 17.3345C33.833 17.1943 33.6356 17.0282 33.345 16.8363L32.0265 15.9616C31.8402 15.8361 31.6838 15.6996 31.5572 15.552C31.4305 15.397 31.3262 15.242 31.2443 15.087C31.1698 14.9246 31.1176 14.7659 31.0878 14.6109C31.058 14.4485 31.0431 14.3009 31.0431 14.168C31.0431 13.703 31.1325 13.3192 31.3113 13.0166C31.4976 12.7139 31.7397 12.4778 32.0377 12.308C32.3356 12.1308 32.6746 12.0091 33.0545 11.9426C33.4419 11.8688 33.833 11.8319 34.2278 11.8319C34.4141 11.8319 34.6115 11.8393 34.8201 11.8541C35.0286 11.8614 35.2298 11.8762 35.4235 11.8983C35.6171 11.9205 35.7959 11.9426 35.9598 11.9648C36.1237 11.9869 36.2504 12.0091 36.3398 12.0312C36.3844 12.046 36.4217 12.0681 36.4515 12.0976C36.4887 12.1272 36.5074 12.1641 36.5074 12.2083V12.2416Z" fill="white"/>
<path d="M41.5505 19.1392L41.4275 19.8478C41.4126 19.9289 41.3828 19.9843 41.3381 20.0138C41.3009 20.0434 41.2413 20.0655 41.1594 20.0803C41.07 20.1024 40.947 20.1245 40.7906 20.1467C40.6416 20.1615 40.474 20.1762 40.2878 20.191C40.109 20.2057 39.9265 20.2168 39.7402 20.2242C39.554 20.2316 39.3864 20.2353 39.2374 20.2353C38.9915 20.2353 38.7345 20.2094 38.4664 20.1578C38.2056 20.1135 37.9672 20.0249 37.7512 19.892C37.5426 19.7592 37.3676 19.582 37.226 19.3606C37.0919 19.1318 37.0249 18.8402 37.0249 18.4859C37.0249 18.4048 37.0249 18.3236 37.0249 18.2424C37.0323 18.1538 37.0435 18.0615 37.0584 17.9656L38.0864 12.1419C38.1013 12.0829 38.1349 12.0312 38.187 11.9869C38.2391 11.9426 38.295 11.9205 38.3546 11.9205H39.4609C39.5801 11.9205 39.6397 11.9795 39.6397 12.0976V12.1419L38.6116 17.9656C38.5893 18.1058 38.5781 18.2313 38.5781 18.342C38.5781 18.5561 38.634 18.7074 38.7457 18.796C38.8649 18.8771 39.0549 18.9177 39.3156 18.9177H41.3717C41.4909 18.9177 41.5505 18.9768 41.5505 19.0949V19.1392Z" fill="white"/>
<path d="M51.6319 12.2416L51.4866 13.0609C51.4717 13.1199 51.4457 13.1679 51.4084 13.2048C51.3712 13.2417 51.3228 13.2601 51.2632 13.2601H51.2408C50.8758 13.2232 50.5219 13.1974 50.1793 13.1826C49.844 13.1605 49.4678 13.1494 49.0507 13.1494C48.8942 13.1494 48.7378 13.1642 48.5813 13.1937C48.4249 13.2159 48.2834 13.2638 48.1567 13.3376C48.0301 13.4041 47.9258 13.5 47.8438 13.6255C47.7693 13.7436 47.7321 13.8949 47.7321 14.0794C47.7321 14.2271 47.7842 14.3636 47.8885 14.4891C48.0003 14.6072 48.1977 14.7511 48.4808 14.9209L49.6876 15.6627C50.142 15.9432 50.4512 16.2495 50.6151 16.5816C50.7864 16.9138 50.8721 17.2385 50.8721 17.5559C50.8721 18.0431 50.7827 18.4564 50.6039 18.796C50.4251 19.1355 50.1793 19.4123 49.8664 19.6263C49.5609 19.8404 49.2034 19.9954 48.7936 20.0913C48.3914 20.1873 47.9593 20.2353 47.4974 20.2353C47.0728 20.2353 46.7078 20.2168 46.4024 20.1799C46.0969 20.143 45.8138 20.095 45.5531 20.036C45.5084 20.0212 45.4674 19.9991 45.4302 19.9695C45.3929 19.94 45.3743 19.8994 45.3743 19.8478V19.8145L45.5196 19.0174C45.5345 18.9583 45.5643 18.9104 45.609 18.8735C45.6537 18.8292 45.7058 18.807 45.7654 18.807H45.7878C45.8995 18.8218 46.0448 18.8365 46.2236 18.8513C46.4024 18.8587 46.5886 18.8698 46.7823 18.8845C46.976 18.8919 47.1585 18.8993 47.3298 18.9067C47.5086 18.9141 47.6501 18.9177 47.7544 18.9177C47.9481 18.9177 48.1344 18.8993 48.3132 18.8624C48.4919 18.8255 48.6484 18.7627 48.7825 18.6742C48.9166 18.5856 49.0246 18.4675 49.1065 18.3199C49.1885 18.1723 49.2294 17.9877 49.2294 17.7663C49.2294 17.6187 49.1736 17.4747 49.0618 17.3345C48.9575 17.1943 48.7601 17.0282 48.4696 16.8363L47.151 15.9616C46.9648 15.8361 46.8084 15.6996 46.6817 15.552C46.5551 15.397 46.4508 15.242 46.3688 15.087C46.2943 14.9246 46.2422 14.7659 46.2124 14.6109C46.1826 14.4485 46.1677 14.3009 46.1677 14.168C46.1677 13.703 46.2571 13.3192 46.4359 13.0166C46.6221 12.7139 46.8642 12.4778 47.1622 12.308C47.4602 12.1308 47.7991 12.0091 48.1791 11.9426C48.5664 11.8688 48.9575 11.8319 49.3524 11.8319C49.5386 11.8319 49.736 11.8393 49.9446 11.8541C50.1532 11.8614 50.3543 11.8762 50.548 11.8983C50.7417 11.9205 50.9205 11.9426 51.0844 11.9648C51.2483 11.9869 51.3749 12.0091 51.4643 12.0312C51.509 12.046 51.5462 12.0681 51.576 12.0976C51.6133 12.1272 51.6319 12.1641 51.6319 12.2083V12.2416Z" fill="white"/>
<path d="M57.4907 16.0945C57.4907 16.1978 57.4833 16.3048 57.4684 16.4156C57.4609 16.5189 57.4497 16.6222 57.4348 16.7256L57.3455 17.257C57.3082 17.4415 57.2188 17.5338 57.0773 17.5338H53.4345C53.4196 17.615 53.4047 17.6925 53.3898 17.7663C53.3823 17.8327 53.3786 17.9065 53.3786 17.9877C53.3786 18.2903 53.4643 18.5339 53.6356 18.7185C53.8069 18.8956 54.1012 18.9842 54.5184 18.9842C54.9281 18.9842 55.3155 18.9694 55.6805 18.9399C56.0455 18.9104 56.3472 18.8845 56.5856 18.8624H56.6303C56.675 18.8624 56.7122 18.8698 56.742 18.8845C56.7793 18.8993 56.7979 18.9325 56.7979 18.9842V19.0285L56.6638 19.7592C56.6489 19.8478 56.6229 19.9142 56.5856 19.9585C56.5558 20.0028 56.4888 20.0323 56.3845 20.047C56.1982 20.0766 56.0232 20.1061 55.8593 20.1356C55.6954 20.1578 55.5278 20.1762 55.3564 20.191C55.1851 20.2057 55.0026 20.2168 54.8089 20.2242C54.6152 20.2316 54.3917 20.2353 54.1384 20.2353C53.8926 20.2353 53.6393 20.1984 53.3786 20.1245C53.1179 20.0507 52.8795 19.9289 52.6634 19.7592C52.4548 19.582 52.2798 19.3532 52.1382 19.0727C52.0042 18.7849 51.9371 18.4306 51.9371 18.0099C51.9371 17.9065 51.9408 17.7995 51.9483 17.6888C51.9557 17.5781 51.9706 17.4637 51.993 17.3456L52.1159 16.6591C52.2053 16.1425 52.3431 15.7033 52.5293 15.3416C52.7156 14.9799 52.9428 14.6884 53.211 14.467C53.4792 14.2381 53.7883 14.0758 54.1384 13.9798C54.4886 13.8765 54.8759 13.8248 55.3006 13.8248C55.673 13.8248 55.9971 13.8838 56.2727 14.0019C56.5484 14.1127 56.7756 14.2714 56.9544 14.478C57.1331 14.6773 57.2672 14.9172 57.3566 15.1977C57.446 15.4708 57.4907 15.7697 57.4907 16.0945ZM56.0381 16.0723C56.0381 15.7476 55.9561 15.504 55.7922 15.3416C55.6283 15.1718 55.39 15.087 55.0771 15.087C54.6301 15.087 54.2949 15.2198 54.0714 15.4855C53.8479 15.7513 53.6989 16.0871 53.6244 16.4931H55.9934C56.0083 16.4192 56.0194 16.3491 56.0269 16.2827C56.0343 16.2163 56.0381 16.1461 56.0381 16.0723Z" fill="white"/>
<path d="M63.2144 14.1569C63.2144 14.1717 63.2144 14.1902 63.2144 14.2123C63.2144 14.2271 63.2107 14.2418 63.2032 14.2566L63.0691 14.9762C63.0542 15.0353 63.0244 15.0796 62.9797 15.1091C62.9425 15.1312 62.8978 15.1423 62.8456 15.1423H62.8121C62.6333 15.1202 62.4396 15.1017 62.2311 15.087C62.0299 15.0722 61.7468 15.0648 61.3818 15.0648C61.2477 15.0648 61.1136 15.087 60.9795 15.1312C60.8454 15.1755 60.7188 15.253 60.5996 15.3638C60.4804 15.4671 60.3724 15.6147 60.2756 15.8066C60.1787 15.9911 60.1042 16.2273 60.0521 16.5152L59.8621 17.5449C59.8398 17.6482 59.8249 17.7478 59.8174 17.8438C59.81 17.9324 59.8062 18.0172 59.8062 18.0984C59.8062 18.283 59.8286 18.4343 59.8733 18.5524C59.9254 18.6705 59.9888 18.7627 60.0632 18.8292C60.1452 18.8956 60.2383 18.9399 60.3426 18.962C60.4543 18.9842 60.5661 18.9952 60.6778 18.9952C60.8566 18.9952 61.0131 18.9952 61.1471 18.9952C61.2887 18.9879 61.4153 18.9805 61.5271 18.9731C61.6388 18.9657 61.7431 18.9583 61.84 18.951C61.9442 18.9362 62.0448 18.9251 62.1417 18.9177H62.1752C62.2199 18.9177 62.2571 18.9288 62.2869 18.951C62.3242 18.9731 62.3428 19.0063 62.3428 19.0506V19.0838L62.2087 19.8035C62.1938 19.892 62.1677 19.9585 62.1305 20.0028C62.1007 20.0397 62.0336 20.0692 61.9293 20.0913C61.7953 20.1282 61.6016 20.1615 61.3483 20.191C61.1025 20.2205 60.8082 20.2353 60.4655 20.2353C60.1452 20.2353 59.8547 20.1836 59.5939 20.0803C59.3332 19.9769 59.1097 19.833 58.9235 19.6485C58.7372 19.4566 58.592 19.2314 58.4877 18.9731C58.3834 18.7148 58.3312 18.4269 58.3312 18.1095C58.3312 18.0209 58.335 17.9324 58.3424 17.8438C58.3573 17.7478 58.3722 17.6482 58.3871 17.5449L58.5771 16.5152C58.6739 15.9911 58.8192 15.5557 59.0129 15.2087C59.2066 14.8618 59.4338 14.5887 59.6945 14.3895C59.9552 14.1828 60.2458 14.0388 60.5661 13.9577C60.8939 13.8691 61.2403 13.8248 61.6053 13.8248C61.948 13.8248 62.2348 13.8396 62.4657 13.8691C62.7041 13.8986 62.8866 13.9318 63.0133 13.9687C63.1473 13.9983 63.2144 14.061 63.2144 14.1569Z" fill="white"/>
<path d="M69.5477 14.1348L68.5196 19.9253C68.5047 19.9843 68.4712 20.036 68.4191 20.0803C68.3744 20.1245 68.3222 20.1467 68.2626 20.1467H67.3016C67.242 20.1467 67.1936 20.1282 67.1564 20.0913C67.1266 20.0544 67.1117 20.0064 67.1117 19.9474V19.9253L67.1452 19.6928C66.8696 19.8478 66.579 19.9806 66.2736 20.0913C65.9756 20.1947 65.6702 20.2463 65.3573 20.2463C65.1413 20.2463 64.929 20.2168 64.7204 20.1578C64.5192 20.0987 64.3405 20.0028 64.184 19.8699C64.0276 19.737 63.9009 19.5636 63.8041 19.3495C63.7147 19.1355 63.67 18.8735 63.67 18.5634C63.67 18.438 63.6737 18.3088 63.6812 18.1759C63.6961 18.0357 63.7184 17.8918 63.7482 17.7441L64.3852 14.1348C64.4001 14.0758 64.4336 14.0241 64.4857 13.9798C64.5379 13.9281 64.5937 13.9023 64.6533 13.9023H65.6814C65.8006 13.9023 65.8602 13.965 65.8602 14.0905V14.1348L65.2232 17.7441C65.2009 17.8844 65.1823 18.0099 65.1674 18.1206C65.1525 18.2239 65.145 18.3199 65.145 18.4084C65.145 18.6446 65.1934 18.7996 65.2903 18.8735C65.3871 18.9473 65.5659 18.9842 65.8266 18.9842C65.9533 18.9842 66.0874 18.9694 66.2289 18.9399C66.3704 18.9104 66.5045 18.8771 66.6312 18.8402C66.7653 18.796 66.8882 18.7517 66.9999 18.7074C67.1117 18.6631 67.2048 18.6225 67.2793 18.5856L68.0727 14.1348C68.0876 14.0758 68.1174 14.0241 68.1621 13.9798C68.2142 13.9281 68.2701 13.9023 68.3297 13.9023H69.3577C69.4173 13.9023 69.462 13.9208 69.4918 13.9577C69.529 13.9946 69.5477 14.0388 69.5477 14.0905V14.1348Z" fill="white"/>
<path d="M74.2609 14.0462L74.1157 14.8434C74.1008 14.9024 74.0673 14.9541 74.0151 14.9984C73.9704 15.0427 73.9183 15.0648 73.8587 15.0648C73.6799 15.0648 73.4601 15.0833 73.1994 15.1202C72.9461 15.1571 72.6295 15.2715 72.2496 15.4634L71.4562 19.9142C71.4413 19.9732 71.4078 20.0286 71.3556 20.0803C71.3035 20.1245 71.2476 20.1467 71.188 20.1467H70.16C70.1004 20.1467 70.0557 20.1282 70.0259 20.0913C69.9961 20.0544 69.9812 20.0101 69.9812 19.9585V19.9142L71.0092 14.1237C71.0241 14.0647 71.0539 14.013 71.0986 13.9687C71.1508 13.9244 71.2066 13.9023 71.2662 13.9023H72.2384C72.365 13.9023 72.4284 13.965 72.4284 14.0905V14.1237L72.3837 14.3562C72.704 14.1127 73.0057 13.965 73.2888 13.9134C73.5793 13.8543 73.8438 13.8248 74.0821 13.8248C74.2013 13.8248 74.2609 13.8838 74.2609 14.0019V14.0462Z" fill="white"/>
<path d="M79.9375 16.0945C79.9375 16.1978 79.93 16.3048 79.9151 16.4156C79.9077 16.5189 79.8965 16.6222 79.8816 16.7256L79.7922 17.257C79.755 17.4415 79.6656 17.5338 79.524 17.5338H75.8812C75.8663 17.615 75.8514 17.6925 75.8365 17.7663C75.8291 17.8327 75.8253 17.9065 75.8253 17.9877C75.8253 18.2903 75.911 18.5339 76.0823 18.7185C76.2537 18.8956 76.5479 18.9842 76.9651 18.9842C77.3748 18.9842 77.7622 18.9694 78.1272 18.9399C78.4923 18.9104 78.794 18.8845 79.0323 18.8624H79.077C79.1217 18.8624 79.159 18.8698 79.1888 18.8845C79.226 18.8993 79.2447 18.9325 79.2447 18.9842V19.0285L79.1106 19.7592C79.0957 19.8478 79.0696 19.9142 79.0323 19.9585C79.0026 20.0028 78.9355 20.0323 78.8312 20.047C78.645 20.0766 78.4699 20.1061 78.306 20.1356C78.1421 20.1578 77.9745 20.1762 77.8032 20.191C77.6318 20.2057 77.4493 20.2168 77.2556 20.2242C77.062 20.2316 76.8385 20.2353 76.5852 20.2353C76.3394 20.2353 76.0861 20.1984 75.8253 20.1245C75.5646 20.0507 75.3262 19.9289 75.1102 19.7592C74.9016 19.582 74.7265 19.3532 74.585 19.0727C74.4509 18.7849 74.3839 18.4306 74.3839 18.0099C74.3839 17.9065 74.3876 17.7995 74.395 17.6888C74.4025 17.5781 74.4174 17.4637 74.4397 17.3456L74.5626 16.6591C74.652 16.1425 74.7899 15.7033 74.9761 15.3416C75.1623 14.9799 75.3895 14.6884 75.6577 14.467C75.9259 14.2381 76.2351 14.0758 76.5852 13.9798C76.9353 13.8765 77.3227 13.8248 77.7473 13.8248C78.1198 13.8248 78.4438 13.8838 78.7195 14.0019C78.9951 14.1127 79.2223 14.2714 79.4011 14.478C79.5799 14.6773 79.714 14.9172 79.8034 15.1977C79.8928 15.4708 79.9375 15.7697 79.9375 16.0945ZM78.4848 16.0723C78.4848 15.7476 78.4029 15.504 78.239 15.3416C78.0751 15.1718 77.8367 15.087 77.5238 15.087C77.0769 15.087 76.7416 15.2198 76.5181 15.4855C76.2947 15.7513 76.1457 16.0871 76.0712 16.4931H78.4401C78.455 16.4192 78.4662 16.3491 78.4736 16.2827C78.4811 16.2163 78.4848 16.1461 78.4848 16.0723Z" fill="white"/>
<path d="M87.002 11.9426L85.6276 19.6485C85.6127 19.7297 85.5829 19.7924 85.5382 19.8367C85.4935 19.8736 85.4041 19.9105 85.27 19.9474C84.905 20.036 84.5214 20.1061 84.1191 20.1578C83.7168 20.2094 83.3369 20.2353 82.9793 20.2353C82.5919 20.2353 82.2567 20.1799 81.9736 20.0692C81.6905 19.9585 81.4559 19.8072 81.2696 19.6153C81.0909 19.416 80.9568 19.1835 80.8674 18.9177C80.7854 18.652 80.7445 18.3678 80.7445 18.0652C80.7445 17.9619 80.7482 17.8622 80.7556 17.7663C80.7705 17.663 80.7854 17.5596 80.8003 17.4563L80.9456 16.6038C81.0275 16.1019 81.1542 15.6774 81.3255 15.3305C81.5043 14.9762 81.7241 14.6884 81.9848 14.467C82.2455 14.2455 82.5547 14.0831 82.9123 13.9798C83.2698 13.8765 83.6721 13.8248 84.1191 13.8248C84.2532 13.8248 84.4096 13.8322 84.5884 13.8469C84.7746 13.8543 84.9683 13.8728 85.1695 13.9023L85.527 11.9426C85.5419 11.8836 85.5717 11.8319 85.6164 11.7876C85.6686 11.7433 85.7245 11.7212 85.784 11.7212H86.8121C86.9387 11.7212 87.002 11.7839 87.002 11.9094V11.9426ZM84.9572 15.098C84.8082 15.0759 84.6294 15.0574 84.4208 15.0427C84.2122 15.0279 84.0409 15.0205 83.9068 15.0205C83.6684 15.0205 83.4635 15.0537 83.2922 15.1202C83.1283 15.1792 82.9868 15.2752 82.8676 15.408C82.7558 15.5409 82.6627 15.707 82.5882 15.9063C82.5212 16.1056 82.4653 16.3381 82.4206 16.6038L82.2753 17.4563C82.2306 17.722 82.2083 17.9508 82.2083 18.1427C82.2083 18.4527 82.2791 18.6815 82.4206 18.8292C82.5696 18.9694 82.8266 19.0395 83.1916 19.0395C83.3928 19.0395 83.5939 19.0321 83.795 19.0174C84.0036 19.0026 84.1638 18.9842 84.2755 18.962L84.9572 15.098Z" fill="white"/>
</svg>
