<svg width="87" height="22" viewBox="0 0 87 22" fill="none" xmlns="http://www.w3.org/2000/svg">
<path d="M10.2467 0C11.8564 0 13.3835 0.389276 14.7662 1.08132C14.9829 1.17864 15.1996 1.3084 15.4163 1.42735L14.4773 2.30322L13.0636 0.767739L10.6284 3.00608L9.19416 1.40572L4.71588 5.57962L7.58446 8.85603L6.47005 9.87247L9.29735 13.1489L8.18294 14.1653L12.2278 18.8258L14.6218 16.5442L16.7061 18.988C16.2934 19.3124 15.8393 19.6368 15.3544 19.9288C13.8582 20.8046 12.135 21.3129 10.2879 21.3129C4.6127 21.3129 0.00027426 16.5334 0.00027426 10.6618C-0.0410002 4.80107 4.58174 0 10.2467 0ZM8.36867 9.99142L10.8245 7.70983L13.0224 10.2509L10.5665 12.5325L8.36867 9.99142ZM10.1125 14.3816L12.5477 12.0784L14.7662 14.6195L12.3104 16.9011L10.1125 14.3816ZM6.6145 5.65531L9.07033 3.37372L11.2682 5.91483L8.81237 8.19642L6.6145 5.65531ZM11.1134 4.43342L12.9398 2.72493L14.5908 4.61724L12.7644 6.34736L11.1134 4.43342ZM14.3741 12.2622L16.2005 10.5537L17.8515 12.4676L16.0251 14.1761L14.3741 12.2622ZM15.9838 16.1117L17.8102 14.4032L19.4612 16.2955L17.6348 18.0256L15.9838 16.1117ZM16.7267 7.32055L17.9443 6.18516L19.0484 7.45031L17.8308 8.5857L16.7267 7.32055ZM15.1583 3.55755L16.3759 2.40053L17.48 3.67649L16.2624 4.81188L15.1583 3.55755ZM18.2849 11.0836L19.5025 9.94816L20.6169 11.2133L19.3786 12.3487L18.2849 11.0836ZM12.8057 8.2613L14.6321 6.55281L16.2831 8.44512L14.4567 10.1536L12.8057 8.2613Z" fill="#0888EA"/>
<mask id="mask0" mask-type="alpha" maskUnits="userSpaceOnUse" x="24" y="5" width="11" height="10">
<path d="M24.1777 5.16528V14.9945H34.9091V5.16528H24.1777Z" fill="white"/>
</mask>
<g mask="url(#mask0)">
<path d="M29.5597 8.07331H29.4668L27.7229 14.9938H26.3093L24.1733 5.16455H25.6489L27.1245 12.4959H27.2173L28.9302 5.16455H30.0962L31.9329 12.4959H32.0155L33.3672 5.16455H34.9047L32.7687 14.9938H31.3448L29.5597 8.07331Z" fill="white"/>
</g>
<path d="M36.7728 10.8096H39.7859C39.724 9.34979 39.0532 8.77669 38.3413 8.77669C37.5364 8.77669 36.9173 9.42548 36.7728 10.8096ZM40.8384 13.4156V14.4644C40.2502 14.8213 39.4557 15.1024 38.5064 15.1024C36.2982 15.1024 35.3901 13.6643 35.3901 11.4692C35.3901 9.3606 36.4014 7.83594 38.3825 7.83594C40.0232 7.83594 41.0447 8.96051 41.0447 11.2205V11.7287H36.7522C36.7522 13.3939 37.3919 14.1292 38.754 14.1292C39.466 14.14 40.1161 13.8805 40.8384 13.4156Z" fill="white"/>
<path d="M44.0969 13.9997C44.5199 14.1943 44.9843 14.2268 45.3041 14.2268C46.2741 14.2268 47.017 13.5888 47.017 11.3396C47.017 9.57709 46.4082 9.0148 45.5311 9.0148C45.0049 9.0148 44.6231 9.16618 44.0969 9.46895V13.9997ZM44.1175 8.4417C44.5096 8.22543 45.1803 7.93348 45.8923 7.93348C47.5226 7.93348 48.41 9.12293 48.41 11.3396C48.41 13.9348 47.2234 15.1891 45.3145 15.1891C44.6128 15.1891 43.5397 14.9513 42.7451 14.5079V4.8409L44.1175 4.49487V8.4417Z" fill="white"/>
<path d="M54.3302 12.9075H54.3921L57.2091 5.16528H58.8498V14.9945H57.4258V7.86859H57.302L54.6192 14.9945H53.773L51.0902 8.03079H50.9767V14.9945H49.79V5.16528H51.3791L54.3302 12.9075Z" fill="white"/>
<path d="M64.6628 11.4799C64.6628 9.60924 63.9405 8.81987 63.0428 8.81987C62.176 8.81987 61.4227 9.60924 61.4227 11.4799C61.4227 13.383 62.1038 14.14 63.0428 14.14C63.9714 14.14 64.6628 13.383 64.6628 11.4799ZM60.04 11.4799C60.04 9.05776 61.3092 7.84668 63.0428 7.84668C64.7763 7.84668 66.0455 9.05776 66.0455 11.4799C66.0455 13.848 64.8485 15.1132 63.0428 15.1132C61.237 15.1132 60.04 13.848 60.04 11.4799Z" fill="white"/>
<path d="M67.0875 8.87394C67.6757 8.49547 68.9346 7.84668 70.4411 7.84668C72.0198 7.84668 72.608 8.49547 72.608 9.92282V14.9402H71.2356V10.2472C71.2356 9.15508 70.7197 8.96044 70.049 8.96044C69.5227 8.96044 68.852 9.20915 68.4393 9.45785V14.951H67.0669V8.87394H67.0875Z" fill="white"/>
<path d="M75.5057 10.8096H78.5187C78.4568 9.34979 77.7861 8.77669 77.0741 8.77669C76.2693 8.77669 75.6501 9.42548 75.5057 10.8096ZM79.5815 13.4156V14.4644C78.9934 14.8213 78.1988 15.1024 77.2495 15.1024C75.0413 15.1024 74.1333 13.6643 74.1333 11.4692C74.1333 9.3606 75.1445 7.83594 77.1257 7.83594C78.7767 7.83594 79.7879 8.96051 79.7879 11.2205V11.7287H75.4954C75.4954 13.3939 76.1454 14.1292 77.4972 14.1292C78.1988 14.14 78.8592 13.8805 79.5815 13.4156Z" fill="white"/>
<path d="M85.2488 7.84668H86.6624L84.2788 14.778C83.6184 16.6919 82.8136 17.6867 81.307 17.6867V16.5513C82.2048 16.5513 82.7516 15.8052 83.0715 14.778L80.5435 7.84668H81.9881L83.67 12.9505H83.7526L85.2488 7.84668Z" fill="white"/>
</svg>
