<svg width="39" height="23" viewBox="0 0 39 23" fill="none" xmlns="http://www.w3.org/2000/svg">
<path d="M24.5771 2.40161H14.4966V19.8029H24.5771V2.40161Z" fill="#FF5F00"/>
<path d="M15.1392 11.1042C15.1392 7.72235 16.7713 4.49419 19.5554 2.40357C14.5632 -1.37799 7.29884 -0.547893 3.39465 4.27898C-0.509531 9.10584 0.322508 16.0541 5.34675 19.8049C9.53895 22.9716 15.3952 22.9716 19.5874 19.8049C16.7393 17.6835 15.1072 14.4861 15.1392 11.1042Z" fill="#EB001B"/>
<path d="M38.1459 11.1013C38.1459 17.2194 32.9936 22.1693 26.6253 22.1693C24.0332 22.1693 21.5371 21.3392 19.521 19.8019C24.5132 16.0204 25.3773 9.04141 21.4731 4.24528C20.8971 3.53816 20.257 2.92328 19.521 2.36988C24.5132 -1.41168 31.7776 -0.581584 35.7138 4.24528C37.2818 6.18218 38.1459 8.61099 38.1459 11.1013Z" fill="#F79E1B"/>
</svg>
