<svg width="84" height="22" viewBox="0 0 84 22" fill="none" xmlns="http://www.w3.org/2000/svg">
<path d="M2.39054 17.274C0.656517 15.2902 -0.112607 12.9625 0.0132497 10.4232C0.209027 6.19108 2.33461 3.01698 6.33405 1.16542C10.3615 -0.69937 14.319 -0.289381 18.0247 2.13087C18.0947 2.18378 18.1506 2.2499 18.2065 2.31603C17.5353 2.27635 16.934 1.93249 16.2627 1.91927C13.9554 1.83991 12.6269 3.25504 11.3543 4.74951C11.1166 4.80241 10.9488 4.96112 10.781 5.1066C8.97704 6.8259 7.1731 8.53198 5.35517 10.2381C5.18736 10.3968 5.01955 10.5423 4.9776 10.7803C4.29238 11.1374 3.84489 11.7458 3.29951 12.2351C2.15281 13.2931 1.77524 14.576 2.06891 16.0705C2.15281 16.4805 2.4325 16.8376 2.39054 17.274Z" fill="#0888EA"/>
<path d="M20.1622 17.3252C18.5959 19.3222 16.4983 20.5522 13.9812 21.1209C10.7089 21.8615 7.6604 21.3193 4.86359 19.5338C4.73773 19.4545 4.62586 19.3355 4.5 19.2429C4.82163 19.2958 5.14327 19.3355 5.45092 19.4016C7.67438 19.9042 10.2335 18.7271 11.2263 16.7301C11.4781 16.7168 11.6459 16.5449 11.7997 16.3862C13.7575 14.5082 15.7152 12.6434 17.673 10.7654C18.3023 11.0167 18.6519 11.5589 19.1134 11.9821C20.1202 12.8947 20.6236 13.9792 20.6097 15.3282C20.5957 15.963 20.274 16.5184 20.316 17.14L20.33 17.1268C20.274 17.1929 20.2181 17.2591 20.1622 17.3252Z" fill="#0888EA"/>
<path d="M20.3168 17.1429C20.2749 16.5213 20.5965 15.9659 20.6105 15.331C20.6245 13.982 20.121 12.8843 19.1142 11.985C18.6527 11.5618 18.3031 11.0195 17.6738 10.7683C17.5899 10.4905 17.3662 10.3318 17.1704 10.1467C15.6741 8.73154 14.1778 7.31642 12.6815 5.91452C12.248 5.51776 11.8844 5.05487 11.353 4.75068C12.6256 3.25621 13.9541 1.82786 16.2614 1.90721C16.9467 1.93366 17.548 2.2643 18.2052 2.30397C18.2612 2.34365 18.3311 2.39655 18.387 2.43623C20.6944 4.11586 22.0229 6.35096 22.4844 9.03572C22.9738 11.866 22.3165 14.4978 20.5965 16.8652C20.5126 16.971 20.4007 17.0503 20.3168 17.1429Z" fill="#1068CC"/>
<path d="M11.2152 16.7307C10.2223 18.7145 7.66325 19.9048 5.43978 19.4022C5.13213 19.3361 4.81049 19.2964 4.48886 19.2435C4.43292 19.2039 4.37699 19.1642 4.30707 19.1245C3.6638 18.7013 3.09045 18.212 2.64296 17.5904C2.58703 17.5242 2.54507 17.4713 2.48914 17.4052L2.50312 17.4184C2.46117 17.3655 2.40523 17.3126 2.36328 17.2597V17.2729C2.40523 16.8365 2.12555 16.4926 2.04165 16.0827C1.74798 14.5882 2.12555 13.3053 3.27225 12.2473C3.81762 11.7447 4.25113 11.1363 4.95034 10.7925C6.96404 12.8556 9.1036 14.7733 11.2152 16.7307Z" fill="#1068CC"/>
<path d="M33.5067 10.5934C33.5067 9.50894 33.5347 8.43768 33.4927 7.35319C33.4787 6.87708 33.6605 6.74482 34.136 6.77127C35.4085 6.8374 36.6951 6.66547 37.9676 6.91675C39.5898 7.24739 40.5547 8.25252 40.7365 9.81312C41.0721 12.7359 39.408 14.4817 36.2895 14.4949C35.5903 14.4949 34.8911 14.4553 34.1919 14.5082C33.6046 14.5478 33.4787 14.323 33.4927 13.8204C33.5347 12.7492 33.5067 11.6779 33.5067 10.5934ZM35.6043 10.6463C35.6043 11.2415 35.6043 11.8366 35.6043 12.4318C35.6043 12.6434 35.6183 12.8021 35.912 12.8417C36.765 12.974 37.7579 12.6301 38.1774 11.9689C38.7228 11.1092 38.7647 10.2099 38.2333 9.33701C37.8278 8.67574 36.765 8.30542 35.898 8.4509C35.6043 8.50381 35.5903 8.66251 35.5903 8.86089C35.6043 9.45604 35.6043 10.0512 35.6043 10.6463Z" fill="white"/>
<path d="M48.9418 6.68203C49.1516 6.68203 49.3614 6.66881 49.5711 6.68203C50.8856 6.76139 51.2912 7.30363 50.9416 8.52037C50.8577 8.82455 50.6899 8.77165 50.4801 8.66585C49.9627 8.40134 49.3893 8.25586 48.802 8.29554C48.4105 8.32199 47.949 8.34844 47.8511 8.7981C47.7532 9.23454 48.1727 9.39325 48.4944 9.55195C49.0118 9.80324 49.5571 10.0016 50.0606 10.2661C51.0395 10.7951 51.459 11.6548 51.2912 12.6467C51.1234 13.6651 50.4381 14.2205 49.4313 14.4718C48.4244 14.7099 47.4036 14.657 46.3967 14.4454C45.8514 14.3263 45.5157 14.1015 45.6276 13.5064C45.6975 13.136 45.4598 12.6467 45.7255 12.4219C46.0891 12.1177 46.3967 12.6467 46.7463 12.7525C47.3057 12.9244 47.8651 13.0699 48.4524 12.9377C48.7321 12.8848 49.0118 12.779 49.0817 12.488C49.1656 12.1838 48.9139 11.9987 48.6901 11.84C48.2426 11.5225 47.6833 11.3903 47.1938 11.1522C46.3688 10.7555 45.7255 10.2132 45.6276 9.27422C45.5018 8.12361 46.0751 7.27718 47.2498 6.86719C47.7812 6.69526 48.3545 6.65558 48.9418 6.68203Z" fill="white"/>
<path d="M30.2638 10.4632C31.1867 10.8732 31.6202 11.5212 31.5503 12.4338C31.4664 13.4521 30.8651 14.1002 29.8722 14.4176C28.8094 14.7482 27.7187 14.7218 26.6559 14.3779C26.2643 14.2457 25.9846 12.8967 26.2923 12.6586C26.4741 12.5264 26.6419 12.6322 26.8097 12.7247C27.383 13.0289 27.9983 13.095 28.6416 13.0157C29.1031 12.9628 29.4247 12.7247 29.4667 12.2486C29.4946 11.799 29.201 11.5609 28.7814 11.4419C28.4179 11.3361 28.0543 11.2832 27.6767 11.3228C27.1313 11.389 26.9635 11.1641 27.0334 10.688C27.0614 10.5425 27.0474 10.3838 27.0334 10.2251C27.0055 9.84159 27.2012 9.72256 27.5788 9.72256C27.9005 9.72256 28.2361 9.73579 28.5577 9.68289C28.9912 9.60353 29.2709 9.35225 29.2429 8.90259C29.215 8.45292 28.8933 8.26777 28.4318 8.24131C27.9564 8.21486 27.5089 8.28099 27.0894 8.51905C26.7118 8.74388 26.558 8.62485 26.53 8.21486C26.4461 7.0907 26.5859 6.89232 27.7606 6.70716C28.264 6.62781 28.7814 6.61459 29.2989 6.69394C30.2218 6.83942 30.9909 7.20973 31.2706 8.13551C31.5083 9.03484 31.2007 9.77546 30.2638 10.4632Z" fill="white"/>
<path d="M70.9259 11.7063C70.9259 12.4734 70.9119 13.2537 70.9259 14.0208C70.9399 14.3911 70.7861 14.5895 70.4085 14.4969C69.8771 14.3646 69.1779 14.8672 68.8003 14.153C68.7024 14.2059 68.6045 14.2456 68.5067 14.2985C66.8286 15.1978 65.2344 14.3514 65.2064 12.5395C65.1924 11.5079 65.2204 10.4631 65.1924 9.43154C65.1784 9.03478 65.3043 8.8893 65.7518 8.8893C67.6257 8.92897 67.2481 8.66446 67.2761 10.2912C67.29 10.9128 67.2761 11.5212 67.2761 12.1428C67.2761 12.6189 67.36 13.0553 68.0032 13.0421C68.6465 13.0289 68.8283 12.6321 68.8423 12.1163C68.8563 11.2831 68.8702 10.4367 68.8423 9.60347C68.8143 9.07445 68.9681 8.86284 69.5694 8.87607C70.9259 8.90252 70.9259 8.87607 70.9259 10.1722C70.9259 10.688 70.9259 11.1905 70.9259 11.7063Z" fill="white"/>
<path d="M81.0823 12.3413C80.6907 12.3413 80.2852 12.3281 79.8936 12.3413C79.7398 12.3413 79.53 12.2487 79.4601 12.4339C79.3762 12.6587 79.572 12.8042 79.7398 12.91C80.3691 13.2803 81.0263 13.1613 81.6976 13.0026C81.9353 12.9497 82.201 12.5132 82.4527 12.9761C82.6625 13.3861 82.4247 14.2325 82.0891 14.3516C81.0263 14.7086 79.9496 14.7748 78.8868 14.378C77.6702 13.9283 77.0968 12.6984 77.3345 11.1774C77.5303 9.86813 78.5092 8.9159 79.8237 8.78364C82.1031 8.55881 83.1519 9.96071 82.9841 12.0239C82.9561 12.2884 82.7883 12.3413 82.5506 12.3413C82.0472 12.3413 81.5577 12.3413 81.0823 12.3413ZM79.3762 11.0187C79.8237 11.0187 80.2153 11.0055 80.6068 11.0187C81.0823 11.0452 81.0263 10.8204 80.8865 10.5294C80.7467 10.2517 80.481 10.1723 80.1873 10.1988C79.7538 10.2384 79.5021 10.503 79.3762 11.0187Z" fill="white"/>
<path d="M54.4538 12.3401C54.5657 12.8823 54.9432 13.0542 55.3627 13.1204C55.7543 13.1865 56.1459 13.16 56.5374 13.0542C57.5722 12.7765 57.5582 12.7765 57.5303 13.8081C57.5163 14.1255 57.4044 14.2842 57.0828 14.3768C56.0759 14.681 55.0691 14.7471 54.0622 14.4297C52.8176 14.0329 52.1464 12.7765 52.3422 11.2953C52.524 9.91981 53.5308 8.91468 54.8733 8.78242C56.9849 8.57082 58.1735 9.76111 58.0337 11.9698C58.0057 12.3797 57.7121 12.3268 57.4324 12.3268C56.4675 12.3401 55.4886 12.3401 54.4538 12.3401ZM56.048 11.0043C56.0899 10.515 55.8662 10.2108 55.3627 10.1975C54.8314 10.1843 54.5517 10.4885 54.4818 11.0043C54.9992 11.0043 55.4886 11.0043 56.048 11.0043Z" fill="white"/>
<path d="M62.3534 8.77002C62.4933 8.78324 62.6052 8.78324 62.717 8.79647C63.8218 8.8626 64.2693 9.48419 63.8917 10.4629C63.7379 10.8596 63.4862 10.5951 63.2764 10.5158C62.0598 10.0661 61.0529 10.6348 61.0809 11.7722C61.1089 12.8302 62.0178 13.346 63.1645 12.936C63.9057 12.6715 63.9057 12.6715 63.9057 13.4518C63.9057 14.3908 63.8358 14.4834 62.8429 14.6024C62.1297 14.6818 61.4025 14.695 60.7173 14.4305C59.4028 13.9015 58.7875 12.7244 59.0392 11.1638C59.235 9.92063 60.3118 8.9684 61.6822 8.82292C61.906 8.77002 62.1437 8.77002 62.3534 8.77002Z" fill="white"/>
<path d="M72.6049 11.7064C72.6049 10.9393 72.6189 10.159 72.6049 9.39191C72.5909 9.0216 72.7447 8.82321 73.1363 8.91579C73.6677 9.03482 74.3669 8.54548 74.7444 9.25965C74.8283 9.21998 74.8983 9.16708 74.9822 9.1274C75.1919 9.03482 75.3877 8.90257 75.6114 8.84967C76.3946 8.65128 76.6183 8.80999 76.6183 9.57706C76.6183 9.73577 76.6043 9.88125 76.6183 10.04C76.6463 10.4896 76.5903 10.7409 75.9611 10.569C75.2758 10.3838 74.7724 10.807 74.7305 11.5609C74.6745 12.3544 74.6885 13.1479 74.7025 13.9415C74.7165 14.3647 74.5766 14.5234 74.1152 14.5234C72.6189 14.5366 72.6189 14.5631 72.6189 13.1612C72.6049 12.6718 72.6049 12.1825 72.6049 11.7064Z" fill="white"/>
<path d="M18.3839 2.43572C18.328 2.39604 18.2581 2.34314 18.2021 2.30347C18.2581 2.34314 18.314 2.39604 18.3839 2.43572Z" fill="#0888EA"/>
<path d="M20.1655 17.3268C20.2215 17.2607 20.2634 17.1945 20.3194 17.1284C20.2774 17.1945 20.2215 17.2607 20.1655 17.3268Z" fill="#1068CC"/>
<path d="M2.39014 17.2593C2.43209 17.3122 2.48803 17.3651 2.52998 17.418C2.47404 17.3651 2.43209 17.3122 2.39014 17.2593Z" fill="#0888EA"/>
<path d="M2.5166 17.3936C2.57254 17.4597 2.61449 17.5126 2.67043 17.5787C2.61449 17.5258 2.55855 17.4597 2.5166 17.3936Z" fill="#0888EA"/>
<path d="M4.31934 19.1135C4.37527 19.1532 4.43121 19.1929 4.50113 19.2326C4.44519 19.1929 4.38926 19.1532 4.31934 19.1135Z" fill="#0888EA"/>
</svg>
