<svg width="41" height="15" viewBox="0 0 41 15" fill="none" xmlns="http://www.w3.org/2000/svg">
<path d="M40.6927 14.244C39.6748 14.244 38.6758 14.244 37.658 14.244C37.5449 13.6426 37.4318 13.0611 37.3187 12.4797C37.281 12.2993 37.2245 12.2391 37.036 12.2391C35.7731 12.2391 34.5102 12.2391 33.2662 12.2391C33.1154 12.2391 33.0212 12.2792 32.9646 12.4597C32.795 13.001 32.6065 13.5423 32.418 14.0836C32.3992 14.1638 32.2861 14.2641 32.2295 14.2641C31.1363 14.2841 30.043 14.2641 28.9121 14.2641C28.9498 14.1438 28.9875 14.0636 29.0252 13.9633C30.6085 9.91349 32.2107 5.86365 33.794 1.83385C34.0767 1.09205 34.5668 0.751221 35.3207 0.751221C36.1501 0.751221 36.9983 0.751221 37.8276 0.751221C37.9973 0.751221 38.0538 0.811367 38.0915 0.991805C38.9397 5.34238 39.7879 9.6729 40.655 14.0034C40.6738 14.0636 40.6738 14.1438 40.6927 14.244ZM36.7156 9.45237C36.3951 7.78832 36.0558 6.12428 35.7354 4.48028C35.7166 4.48028 35.6977 4.48028 35.6789 4.48028C35.1134 6.12428 34.5479 7.78832 33.9825 9.45237C34.9061 9.45237 35.792 9.45237 36.7156 9.45237Z" fill="#0888EA"/>
<path d="M0 1.11118C0.0188489 0.970839 0.0565467 0.870595 0.0753956 0.750303C0.150791 0.750303 0.226187 0.730254 0.301582 0.730254C2.07338 0.730254 3.82632 0.730254 5.59812 0.730254C6.46517 0.730254 7.04949 1.25152 7.20028 2.15371C7.65265 4.6999 8.10502 7.22604 8.5574 9.77223C8.5574 9.79228 8.5574 9.79228 8.59509 9.87247C8.65164 9.75218 8.68934 9.67199 8.70819 9.59179C9.78257 6.70478 10.857 3.83781 11.9125 0.95079C11.9879 0.770351 12.0633 0.710205 12.2518 0.710205C13.2319 0.730254 14.2121 0.710205 15.1922 0.710205C15.2676 0.710205 15.343 0.710205 15.4561 0.710205C15.3995 0.850546 15.3807 0.95079 15.3241 1.07108C13.6277 5.38156 11.9125 9.71208 10.2161 14.0226C10.1596 14.183 10.0653 14.2431 9.89567 14.2431C8.87783 14.2431 7.85999 14.2431 6.84215 14.2431C6.69136 14.2431 6.63481 14.203 6.57826 14.0226C5.71121 10.4539 4.84416 6.90526 3.97712 3.33659C3.84517 2.79527 3.58129 2.4344 3.11007 2.19381C2.16762 1.71264 1.14978 1.41191 0.131942 1.15128C0.113093 1.15128 0.0753956 1.13123 0 1.11118Z" fill="#0888EA"/>
<path d="M29.6874 1.11077C29.4989 2.05306 29.3104 2.99535 29.1219 3.95768C29.0277 3.91759 28.9523 3.89754 28.8957 3.85744C27.9721 3.45647 27.0297 3.27603 26.0307 3.33617C25.6349 3.37627 25.239 3.47652 24.8998 3.73715C24.3531 4.15817 24.3343 4.79973 24.8621 5.22076C25.2579 5.54153 25.7103 5.78212 26.1249 6.04275C26.6904 6.40363 27.2936 6.72441 27.8025 7.16548C28.9711 8.10777 29.3104 9.39089 28.9711 10.8945C28.613 12.4784 27.5951 13.4006 26.238 13.962C25.0128 14.4632 23.75 14.5434 22.4494 14.4231C21.6577 14.3429 20.8661 14.2026 20.1121 13.9219C19.9802 13.8818 19.8671 13.8217 19.7163 13.7615C19.9236 12.7791 20.1121 11.7967 20.3195 10.7943C20.5457 10.8945 20.7718 11.0148 20.998 11.095C22.0913 11.5762 23.2222 11.7767 24.372 11.5361C24.6924 11.476 25.0317 11.2955 25.2956 11.095C25.7857 10.7141 25.8045 10.0124 25.3521 9.59138C25.0128 9.2706 24.5982 9.03001 24.2023 8.76938C23.5992 8.38845 22.9583 8.04763 22.4117 7.60655C20.5457 6.12295 20.8849 3.87749 21.8462 2.55427C22.5625 1.57189 23.5426 1.03057 24.6547 0.729841C26.3134 0.288769 27.9344 0.409061 29.5366 1.01052C29.5554 1.05062 29.612 1.07067 29.6874 1.11077Z" fill="#0888EA"/>
<path d="M20.1512 0.751221C20.0192 1.37273 19.9061 1.95414 19.793 2.53556C19.0391 6.32477 18.2663 10.114 17.5123 13.9232C17.4558 14.1638 17.3992 14.2841 17.1354 14.2641C16.2306 14.244 15.3447 14.2641 14.44 14.2641C14.3646 14.2641 14.2703 14.2641 14.1572 14.2641C14.2326 13.9032 14.2892 13.5824 14.3646 13.2416C15.1939 9.15164 16.0233 5.0617 16.8338 0.971757C16.8715 0.791318 16.928 0.751221 17.0977 0.751221C18.0401 0.751221 18.9825 0.751221 19.925 0.751221C19.9815 0.751221 20.0381 0.751221 20.1512 0.751221Z" fill="#0888EA"/>
</svg>
